<?xml version="1.0" encoding="UTF-8"?>
<svg width="800" height="400" viewBox="0 0 800 400" xmlns="http://www.w3.org/2000/svg">
  <!-- Background -->
  <rect width="800" height="400" fill="#f8f9fa" rx="10" ry="10"/>
  
  <!-- Title -->
  <text x="400" y="30" font-family="Arial, sans-serif" font-size="24" fill="#2c7873" text-anchor="middle" font-weight="bold">Implementation Approaches Comparison</text>
  
  <!-- Three Columns -->
  <g id="approach-1">
    <!-- Box -->
    <rect x="50" y="60" width="220" height="320" fill="white" stroke="#6FB98F" stroke-width="2" rx="10" ry="10"/>
    
    <!-- Header -->
    <rect x="50" y="60" width="220" height="60" fill="#6FB98F" rx="10" ry="10"/>
    <text x="160" y="85" font-family="Arial, sans-serif" font-size="18" fill="white" text-anchor="middle" font-weight="bold">Custom Claude Prompts</text>
    <text x="160" y="105" font-family="Arial, sans-serif" font-size="12" fill="white" text-anchor="middle">For individuals & small teams</text>
    
    <!-- Content -->
    <circle cx="80" cy="150" r="10" fill="#6FB98F"/>
    <text x="100" y="155" font-family="Arial, sans-serif" font-size="14" fill="#333">Flexible, on-demand access</text>
    
    <circle cx="80" cy="190" r="10" fill="#6FB98F"/>
    <text x="100" y="195" font-family="Arial, sans-serif" font-size="14" fill="#333">Minimal technical setup</text>
    
    <circle cx="80" cy="230" r="10" fill="#6FB98F"/>
    <text x="100" y="235" font-family="Arial, sans-serif" font-size="14" fill="#333">Prompt libraries & templates</text>
    
    <circle cx="80" cy="270" r="10" fill="#6FB98F"/>
    <text x="100" y="275" font-family="Arial, sans-serif" font-size="14" fill="#333">Ad-hoc usage patterns</text>
    
    <circle cx="80" cy="310" r="10" fill="#6FB98F"/>
    <text x="100" y="315" font-family="Arial, sans-serif" font-size="14" fill="#333">Regular capability updates</text>
    
    <!-- Complexity and Scale Indicators -->
    <text x="70" y="350" font-family="Arial, sans-serif" font-size="12" fill="#666">Complexity: </text>
    <rect x="140" y="342" width="30" height="10" fill="#6FB98F"/>
    <rect x="170" y="342" width="60" height="10" fill="#eee"/>
    
    <text x="70" y="370" font-family="Arial, sans-serif" font-size="12" fill="#666">Scale: </text>
    <rect x="140" y="362" width="30" height="10" fill="#6FB98F"/>
    <rect x="170" y="362" width="60" height="10" fill="#eee"/>
  </g>
  
  <g id="approach-2">
    <!-- Box -->
    <rect x="290" y="60" width="220" height="320" fill="white" stroke="#2c7873" stroke-width="2" rx="10" ry="10"/>
    
    <!-- Header -->
    <rect x="290" y="60" width="220" height="60" fill="#2c7873" rx="10" ry="10"/>
    <text x="400" y="85" font-family="Arial, sans-serif" font-size="18" fill="white" text-anchor="middle" font-weight="bold">Specialized GPTs</text>
    <text x="400" y="105" font-family="Arial, sans-serif" font-size="12" fill="white" text-anchor="middle">For focused workflows</text>
    
    <!-- Content -->
    <circle cx="320" cy="150" r="10" fill="#2c7873"/>
    <text x="340" y="155" font-family="Arial, sans-serif" font-size="14" fill="#333">Task-specific capabilities</text>
    
    <circle cx="320" cy="190" r="10" fill="#2c7873"/>
    <text x="340" y="195" font-family="Arial, sans-serif" font-size="14" fill="#333">Role-based knowledge</text>
    
    <circle cx="320" cy="230" r="10" fill="#2c7873"/>
    <text x="340" y="235" font-family="Arial, sans-serif" font-size="14" fill="#333">Interconnected systems</text>
    
    <circle cx="320" cy="270" r="10" fill="#2c7873"/>
    <text x="340" y="275" font-family="Arial, sans-serif" font-size="14" fill="#333">Recurring workflow focus</text>
    
    <circle cx="320" cy="310" r="10" fill="#2c7873"/>
    <text x="340" y="315" font-family="Arial, sans-serif" font-size="14" fill="#333">Organizational deployment</text>
    
    <!-- Complexity and Scale Indicators -->
    <text x="310" y="350" font-family="Arial, sans-serif" font-size="12" fill="#666">Complexity: </text>
    <rect x="380" y="342" width="60" height="10" fill="#2c7873"/>
    <rect x="440" y="342" width="30" height="10" fill="#eee"/>
    
    <text x="310" y="370" font-family="Arial, sans-serif" font-size="12" fill="#666">Scale: </text>
    <rect x="380" y="362" width="60" height="10" fill="#2c7873"/>
    <rect x="440" y="362" width="30" height="10" fill="#eee"/>
  </g>
  
  <g id="approach-3">
    <!-- Box -->
    <rect x="530" y="60" width="220" height="320" fill="white" stroke="#004445" stroke-width="2" rx="10" ry="10"/>
    
    <!-- Header -->
    <rect x="530" y="60" width="220" height="60" fill="#004445" rx="10" ry="10"/>
    <text x="640" y="85" font-family="Arial, sans-serif" font-size="18" fill="white" text-anchor="middle" font-weight="bold">Enterprise AI Teams</text>
    <text x="640" y="105" font-family="Arial, sans-serif" font-size="12" fill="white" text-anchor="middle">For comprehensive integration</text>
    
    <!-- Content -->
    <circle cx="560" cy="150" r="10" fill="#004445"/>
    <text x="580" y="155" font-family="Arial, sans-serif" font-size="14" fill="#333">Organization-wide assessment</text>
    
    <circle cx="560" cy="190" r="10" fill="#004445"/>
    <text x="580" y="195" font-family="Arial, sans-serif" font-size="14" fill="#333">Ecosystem of AI networks</text>
    
    <circle cx="560" cy="230" r="10" fill="#004445"/>
    <text x="580" y="235" font-family="Arial, sans-serif" font-size="14" fill="#333">Systems integration</text>
    
    <circle cx="560" cy="270" r="10" fill="#004445"/>
    <text x="580" y="275" font-family="Arial, sans-serif" font-size="14" fill="#333">Training programs</text>
    
    <circle cx="560" cy="310" r="10" fill="#004445"/>
    <text x="580" y="315" font-family="Arial, sans-serif" font-size="14" fill="#333">Measurement frameworks</text>
    
    <!-- Complexity and Scale Indicators -->
    <text x="550" y="350" font-family="Arial, sans-serif" font-size="12" fill="#666">Complexity: </text>
    <rect x="620" y="342" width="90" height="10" fill="#004445"/>
    
    <text x="550" y="370" font-family="Arial, sans-serif" font-size="12" fill="#666">Scale: </text>
    <rect x="620" y="362" width="90" height="10" fill="#004445"/>
  </g>
  
  <!-- Connecting flow -->
  <path d="M270 220 L290 220" stroke="#ccc" stroke-width="2"/>
  <path d="M510 220 L530 220" stroke="#ccc" stroke-width="2"/>
  
  <!-- Arrow heads -->
  <polygon points="290,220 280,215 280,225" fill="#ccc"/>
  <polygon points="530,220 520,215 520,225" fill="#ccc"/>
</svg>