<svg viewBox="0 0 1200 800" xmlns="http://www.w3.org/2000/svg">
  <!-- Sky background -->
  <rect width="100%" height="65%" fill="#e0f2f1"/>
  
  <!-- Water surface -->
  <rect y="520" width="100%" height="280" fill="#64b5f6"/>
  
  <!-- Distant hills -->
  <path d="M0,520 Q300,420 600,500 T1200,460 V520 H0 Z" fill="#2d6a4f" opacity="0.6"/>
  
  <!-- Foreground shore -->
  <path d="M0,520 C200,500 400,530 600,510 C800,490 1000,520 1200,500 V800 H0 Z" fill="#81c784"/>
  
  <!-- Beaver dam structure -->
  <path d="M200,500 C250,490 300,520 350,505 C400,490 450,510 500,500 C550,490 600,520 650,505 C700,495 750,515 800,505 C850,495 900,510 950,500 V660 H200 Z" fill="#795548"/>
  
  <!-- Dam sticks and branches -->
  <g stroke="#5d4037" stroke-width="6" stroke-linecap="round">
    <!-- Random sticks in dam -->
    <line x1="220" y1="510" x2="260" y2="530"/>
    <line x1="310" y1="500" x2="330" y2="540"/>
    <line x1="380" y1="510" x2="410" y2="490"/>
    <line x1="450" y1="505" x2="470" y2="535"/>
    <line x1="520" y1="495" x2="550" y2="515"/>
    <line x1="590" y1="505" x2="620" y2="485"/>
    <line x1="650" y1="510" x2="670" y2="540"/>
    <line x1="710" y1="500" x2="740" y2="520"/>
    <line x1="780" y1="510" x2="800" y2="480"/>
    <line x1="840" y1="505" x2="870" y2="525"/>
    <line x1="900" y1="495" x2="930" y2="515"/>
  </g>
  
  <!-- Water texture (lines) -->
  <g stroke="#bbdefb" stroke-width="1.5" opacity="0.7">
    <path d="M0,560 C50,550 100,570 150,560 C200,550 250,570 300,560" fill="none"/>
    <path d="M300,580 C350,570 400,590 450,580 C500,570 550,590 600,580" fill="none"/>
    <path d="M600,550 C650,540 700,560 750,550 C800,540 850,560 900,550" fill="none"/>
    <path d="M900,590 C950,580 1000,600 1050,590 C1100,580 1150,600 1200,590" fill="none"/>
    <path d="M100,610 C150,600 200,620 250,610 C300,600 350,620 400,610" fill="none"/>
    <path d="M500,630 C550,620 600,640 650,630 C700,620 750,640 800,630" fill="none"/>
    <path d="M800,600 C850,590 900,610 950,600 C1000,590 1050,610 1100,600" fill="none"/>
  </g>
  
  <!-- Trees on the shore -->
  <g transform="translate(100, 480)">
    <path d="M0,0 L30,0 L15,-60 Z" fill="#2d6a4f"/>
    <rect x="12" y="0" width="6" height="15" fill="#795548"/>
  </g>
  
  <g transform="translate(150, 485)">
    <path d="M0,0 L25,0 L12,-50 Z" fill="#2d6a4f"/>
    <rect x="10" y="0" width="5" height="12" fill="#795548"/>
  </g>
  
  <g transform="translate(1000, 475)">
    <path d="M0,0 L35,0 L17,-70 Z" fill="#2d6a4f"/>
    <rect x="14" y="0" width="7" height="18" fill="#795548"/>
  </g>
  
  <g transform="translate(1060, 480)">
    <path d="M0,0 L28,0 L14,-55 Z" fill="#2d6a4f"/>
    <rect x="11" y="0" width="6" height="14" fill="#795548"/>
  </g>
  
  <!-- Beaver -->
  <g transform="translate(600, 550)">
    <!-- Body -->
    <ellipse cx="0" cy="0" rx="40" ry="25" fill="#8d6e63"/>
    <!-- Head -->
    <circle cx="-30" cy="-5" r="20" fill="#8d6e63"/>
    <!-- Tail -->
    <path d="M30,0 L70,10 Q80,15 70,20 L30,10 Z" fill="#6d4c41"/>
    <!-- Eyes -->
    <circle cx="-38" cy="-12" r="3" fill="#212121"/>
    <!-- Nose -->
    <ellipse cx="-45" cy="-2" rx="5" ry="3" fill="#4e342e"/>
  </g>
  
  <!-- AI Visualization Elements -->
  
  <!-- Data overlay frame -->
  <rect x="820" y="80" width="300" height="200" rx="10" fill="rgba(255,255,255,0.8)" stroke="#2196f3" stroke-width="2"/>
  
  <!-- Graph title -->
  <text x="970" y="110" font-family="Arial, sans-serif" font-size="16" font-weight="bold" text-anchor="middle" fill="#0d47a1">Dam Integrity Analysis</text>
  
  <!-- Mini graph -->
  <rect x="840" y="130" width="260" height="130" rx="5" fill="white" stroke="#90caf9" stroke-width="1"/>
  
  <!-- Graph elements -->
  <g stroke="#90caf9" stroke-width="1">
    <line x1="850" y1="240" x2="1090" y2="240"/>
    <line x1="850" y1="140" x2="850" y2="240"/>
  </g>
  
  <!-- Graph data -->
  <path d="M850,220 L870,210 L890,215 L910,200 L930,195 L950,180 L970,190 L990,170 L1010,160 L1030,155 L1050,165 L1070,150" stroke="#2196f3" stroke-width="2" fill="none"/>
  
  <!-- Data points -->
  <circle cx="850" cy="220" r="3" fill="#0d47a1"/>
  <circle cx="870" cy="210" r="3" fill="#0d47a1"/>
  <circle cx="890" cy="215" r="3" fill="#0d47a1"/>
  <circle cx="910" cy="200" r="3" fill="#0d47a1"/>
  <circle cx="930" cy="195" r="3" fill="#0d47a1"/>
  <circle cx="950" cy="180" r="3" fill="#0d47a1"/>
  <circle cx="970" cy="190" r="3" fill="#0d47a1"/>
  <circle cx="990" cy="170" r="3" fill="#0d47a1"/>
  <circle cx="1010" cy="160" r="3" fill="#0d47a1"/>
  <circle cx="1030" cy="155" r="3" fill="#0d47a1"/>
  <circle cx="1050" cy="165" r="3" fill="#0d47a1"/>
  <circle cx="1070" cy="150" r="3" fill="#0d47a1"/>
  
  <!-- Data annotations -->
  <g font-family="Arial, sans-serif" font-size="12" fill="#0d47a1">
    <text x="940" y="260" text-anchor="middle">Time (weeks)</text>
    <text x="830" y="190" text-anchor="end" transform="rotate(-90, 830, 190)">Water Retention</text>
  </g>
  
  <!-- Scan lines effect over dam -->
  <g stroke="#64b5f6" stroke-width="1" opacity="0.4">
    <line x1="200" y1="510" x2="950" y2="510" stroke-dasharray="5,5"/>
    <line x1="200" y1="530" x2="950" y2="530" stroke-dasharray="5,5"/>
    <line x1="200" y1="550" x2="950" y2="550" stroke-dasharray="5,5"/>
    <line x1="200" y1="570" x2="950" y2="570" stroke-dasharray="5,5"/>
    <line x1="200" y1="590" x2="950" y2="590" stroke-dasharray="5,5"/>
    <line x1="200" y1="610" x2="950" y2="610" stroke-dasharray="5,5"/>
    <line x1="200" y1="630" x2="950" y2="630" stroke-dasharray="5,5"/>
  </g>
  
  <!-- Measurement points on dam -->
  <circle cx="300" cy="510" r="5" fill="#f44336" opacity="0.8"/>
  <circle cx="500" cy="500" r="5" fill="#f44336" opacity="0.8"/>
  <circle cx="700" cy="510" r="5" fill="#f44336" opacity="0.8"/>
  <circle cx="900" cy="500" r="5" fill="#f44336" opacity="0.8"/>
  
  <!-- AI badge -->
  <g transform="translate(80, 100)">
    <rect x="0" y="0" width="120" height="40" rx="20" fill="#1b4332" opacity="0.9"/>
    <text x="60" y="26" font-family="Arial, sans-serif" font-size="16" font-weight="bold" text-anchor="middle" fill="white">AI Monitored</text>
  </g>
  
  <!-- Main Title -->
  <text x="600" y="60" font-family="Arial, sans-serif" font-size="36" font-weight="bold" text-anchor="middle" fill="#1b4332">Dam Good Forestry: Beaver and AI Restoration</text>
  
  <!-- Subtitle -->
  <text x="600" y="100" font-family="Arial, sans-serif" font-size="20" text-anchor="middle" fill="#2d6a4f">Enhancing Watershed Management with Beaver-Assisted Restoration</text>
</svg>