<?xml version="1.0" encoding="UTF-8" standalone="no"?>
<svg width="1200" height="600" viewBox="0 0 1200 600" xmlns="http://www.w3.org/2000/svg">
  <!-- Background gradient -->
  <defs>
    <linearGradient id="bg-gradient" x1="0%" y1="0%" x2="100%" y2="100%">
      <stop offset="0%" style="stop-color:#1a4a3c;stop-opacity:1" />
      <stop offset="100%" style="stop-color:#0c2419;stop-opacity:1" />
    </linearGradient>
    
    <!-- Tree shapes -->
    <g id="tree">
      <polygon points="0,100 30,0 60,100" style="fill:#2A7F62;stroke:none;" />
      <rect x="25" y="100" width="10" height="20" style="fill:#5D4037;stroke:none;" />
    </g>
  </defs>
  
  <!-- Background -->
  <rect width="100%" height="100%" fill="url(#bg-gradient)" />
  
  <!-- Add subtle pattern -->
  <rect width="100%" height="100%" fill="url(#noise)" opacity="0.05"/>
  
  <!-- Forest silhouette pattern -->
  <g opacity="0.3">
    <!-- Front row trees -->
    <use href="#tree" x="50" y="350" transform="scale(1.5)" />
    <use href="#tree" x="150" y="380" transform="scale(2)" />
    <use href="#tree" x="260" y="350" transform="scale(1.8)" />
    <use href="#tree" x="380" y="370" transform="scale(1.6)" />
    <use href="#tree" x="500" y="390" transform="scale(2.2)" />
    <use href="#tree" x="640" y="360" transform="scale(1.9)" />
    <use href="#tree" x="780" y="380" transform="scale(1.7)" />
    <use href="#tree" x="900" y="350" transform="scale(2.1)" />
    <use href="#tree" x="1050" y="370" transform="scale(1.8)" />
    
    <!-- Mid row trees -->
    <use href="#tree" x="20" y="400" transform="scale(1.2)" />
    <use href="#tree" x="100" y="420" transform="scale(1.5)" />
    <use href="#tree" x="210" y="430" transform="scale(1.3)" />
    <use href="#tree" x="330" y="410" transform="scale(1.4)" />
    <use href="#tree" x="450" y="430" transform="scale(1.6)" />
    <use href="#tree" x="590" y="420" transform="scale(1.2)" />
    <use href="#tree" x="730" y="410" transform="scale(1.5)" />
    <use href="#tree" x="850" y="430" transform="scale(1.4)" />
    <use href="#tree" x="1000" y="420" transform="scale(1.3)" />
    <use href="#tree" x="1100" y="410" transform="scale(1.5)" />
    
    <!-- Back row trees -->
    <use href="#tree" x="0" y="450" transform="scale(1)" />
    <use href="#tree" x="80" y="460" transform="scale(1.1)" />
    <use href="#tree" x="160" y="470" transform="scale(0.9)" />
    <use href="#tree" x="240" y="460" transform="scale(1)" />
    <use href="#tree" x="320" y="470" transform="scale(1.1)" />
    <use href="#tree" x="400" y="460" transform="scale(0.9)" />
    <use href="#tree" x="480" y="470" transform="scale(1)" />
    <use href="#tree" x="560" y="460" transform="scale(1.1)" />
    <use href="#tree" x="640" y="470" transform="scale(0.9)" />
    <use href="#tree" x="720" y="460" transform="scale(1)" />
    <use href="#tree" x="800" y="470" transform="scale(1.1)" />
    <use href="#tree" x="880" y="460" transform="scale(0.9)" />
    <use href="#tree" x="960" y="470" transform="scale(1)" />
    <use href="#tree" x="1040" y="460" transform="scale(1.1)" />
    <use href="#tree" x="1120" y="470" transform="scale(0.9)" />
  </g>
  
  <!-- Digital Circuit pattern overlay -->
  <g opacity="0.15" stroke="#4CAF50" stroke-width="1">
    <!-- Horizontal lines -->
    <line x1="0" y1="100" x2="1200" y2="100" />
    <line x1="0" y1="200" x2="1200" y2="200" />
    <line x1="0" y1="300" x2="1200" y2="300" />
    <line x1="0" y1="400" x2="1200" y2="400" />
    <line x1="0" y1="500" x2="1200" y2="500" />
    
    <!-- Vertical lines -->
    <line x1="100" y1="0" x2="100" y2="600" />
    <line x1="300" y1="0" x2="300" y2="600" />
    <line x1="500" y1="0" x2="500" y2="600" />
    <line x1="700" y1="0" x2="700" y2="600" />
    <line x1="900" y1="0" x2="900" y2="600" />
    <line x1="1100" y1="0" x2="1100" y2="600" />
    
    <!-- Circuit nodes -->
    <circle cx="100" cy="100" r="5" fill="#4CAF50" />
    <circle cx="300" cy="200" r="5" fill="#4CAF50" />
    <circle cx="500" cy="300" r="5" fill="#4CAF50" />
    <circle cx="700" cy="200" r="5" fill="#4CAF50" />
    <circle cx="900" cy="100" r="5" fill="#4CAF50" />
    <circle cx="1100" cy="300" r="5" fill="#4CAF50" />
    <circle cx="100" cy="500" r="5" fill="#4CAF50" />
    <circle cx="500" cy="500" r="5" fill="#4CAF50" />
    <circle cx="900" cy="500" r="5" fill="#4CAF50" />
    <circle cx="300" cy="400" r="5" fill="#4CAF50" />
    <circle cx="700" cy="400" r="5" fill="#4CAF50" />
    <circle cx="1100" cy="400" r="5" fill="#4CAF50" />
  </g>
</svg>